{"title":"Robot.Chicken.S08E06.1080p.WEB-DL.DD5.1.H.264-RARBG","uid":12930952,"size":446958698,"categoryP":"video","categoryS":"hd___tv_shows","magnet":"?xt=urn:btih:5d967dfe919e3027d7844bedac4a8e2c3fb0de16&amp;dn=Robot.Chicken.S08E06.1080p.WEB-DL.DD5.1.H.264-RARBG&amp;tr=udp%3A%2F%2Ftracker.leechers-paradise.org%3A6969&amp;tr=udp%3A%2F%2Fzer0day.ch%3A1337&amp;tr=udp%3A%2F%2Fopen.demonii.com%3A1337&amp;tr=udp%3A%2F%2Ftracker.coppersurfer.tk%3A6969&amp;tr=udp%3A%2F%2Fexodus.desync.com%3A6969","seeders":1,"leechers":0,"uploader":"frostyon420","files":3,"time":1449524559,"description":"\n\r\nPhr0stY-Duz-It\r\n\r\n[mediainfo]\r\nVideo\r\nID                          : 1\r\nFormat                      : AVC\r\nFormat/Info                 : Advanced Video Codec\r\nFormat profile              :   \r\nFormat settings, CABAC      : Yes\r\nFormat settings, ReFrames   : 5 frames\r\nCodec ID                    : V_MPEG4/ISO/AVC\r\nDuration                    : 11mn 17s\r\nBit rate                    : 4 785 Kbps\r\nWidth                       : 1 440 pixels\r\nHeight                      : 1 080 pixels\r\nDisplay aspect ratio        : 16:9\r\nFrame rate mode             : Constant\r\nFrame rate                  : 29.970 fps\r\nColor space                 : YUV\r\nChroma subsampling          : 4:2:0\r\nBit depth                   : 8 bits\r\nScan type                   : Progressive\r\nBits/(Pixel*Frame)          : 0.103\r\nStream size                 : 387 MiB (91%)\r\nTitle                       : Robot.Chicken.S08E06.Zero.Vegetables.1080p.WEB-DL.DD5.1.H.264-RARBG\r\nLanguage                    : English\r\nDefault                     : Yes\r\nForced                      : No\r\nColor primaries             : BT.709\r\nTransfer characteristics    : BT.709\r\nMatrix coefficients         : BT.709\r\nColor range                 : Limited\r\n\r\nAudio\r\nID                          : 2\r\nFormat                      : AC-3\r\nFormat/Info                 : Audio Coding 3\r\nMode extension              : CM (complete main)\r\nFormat settings, Endianness : Big\r\nCodec ID                    : A_AC3\r\nDuration                    : 11mn 17s\r\nBit rate mode               : Constant\r\nBit rate                    : 384 Kbps\r\nChannel(s)                  : 6 channels\r\nChannel positions           : Front: L C R, Side: L R, LFE\r\nSampling rate               : 48.0 KHz\r\nBit depth                   : 16 bits\r\nCompression mode            : Lossy\r\nStream size                 : 31.0 MiB (7%)\r\nTitle                       : Robot.Chicken.S08E06.Zero.Vegetables.1080p.WEB-DL.DD5.1.H.264-RARBG\r\nLanguage                    : English\r\nDefault                     : Yes\r\nForced                      : No\r\n\r\nText\r\nID                          : 3\r\nFormat                      : UTF-8\r\nCodec ID                    : S_TEXT/UTF8\r\nCodec ID/Info               : UTF-8 Plain Text\r\nTitle                       : English\r\nDefault                     : Yes\r\nForced                      : No\r\n[/mediainfo]","torrent":{"xt":"urn:btih:5d967dfe919e3027d7844bedac4a8e2c3fb0de16","amp;dn":"Robot.Chicken.S08E06.1080p.WEB-DL.DD5.1.H.264-RARBG","amp;tr":["udp%3A%2F%2Ftracker.leechers-paradise.org%3A6969","udp%3A%2F%2Fzer0day.ch%3A1337","udp%3A%2F%2Fopen.demonii.com%3A1337","udp%3A%2F%2Ftracker.coppersurfer.tk%3A6969","udp%3A%2F%2Fexodus.desync.com%3A6969"],"infoHash":"5d967dfe919e3027d7844bedac4a8e2c3fb0de16","infoHashBuffer":{"type":"Buffer","data":[93,150,125,254,145,158,48,39,215,132,75,237,172,74,142,44,63,176,222,22]},"announce":[],"urlList":[]}}